<?xml version="1.0" encoding="utf-8"?>
<svg version="1.1" id="Layer_1" xmlns="http://www.w3.org/2000/svg" xmlns:xlink="http://www.w3.org/1999/xlink" x="0px" y="0px"
	 viewBox="0 0 232.2 32" style="enable-background:new 0 0 232.2 32;" xml:space="preserve">
<style type="text/css">
	.st0{
		fill:#1F448C;
	}
	.st1{
		fill:#7EBEE8;
	}
</style>
<g>
	<g>
		<path class="st0" d="M76.8,26.3c-1,0.2-2.1,0.3-3.4,0.3c-2,0-3.1-1-3.1-3v-9h5.5c2.2,0,2.7-0.5,2.7-2.5v-0.5c0-2-0.5-2.5-2.7-2.5
			h-5.5V5.5c0-2-0.4-2.4-2.5-2.4h-0.3c-2.1,0-2.7,0.5-2.9,2.3L64,9l-2,0.4c-1.9,0.4-2.4,0.9-2.4,2.7v0.2c0,1.8,0.5,2.3,2.4,2.3h1.9
			v8.9c0,5.8,3.1,8.7,9.4,8.7c1.4,0,2.6-0.1,3.4-0.3c2.1-0.4,2.7-1.2,2.7-3.2v-0.5C79.5,26.2,79,26,76.8,26.3z M127.3,9h-0.9
			c-2.2,0-2.7,0.5-2.7,2.5V23c0,2.5-0.9,3.6-4.6,3.6s-4.7-1-4.7-3.6V11.5c0-2-0.5-2.5-2.7-2.5h-0.9c-2.2,0-2.7,0.5-2.7,2.5V23
			c0,6,3.7,9.2,11.1,9.2c7.6,0,11-3,11-9.2V11.5C130,9.5,129.5,9,127.3,9z M54.1,9h-0.9c-2.2,0-2.7,0.5-2.7,2.5v18.1
			c0,2,0.5,2.5,2.7,2.5h0.9c2.2,0,2.7-0.5,2.7-2.5V11.5C56.8,9.5,56.3,9,54.1,9z M51,1.3c-1.5,1.4-1.5,3.6,0,5s3.8,1.4,5.3,0
			s1.5-3.6,0-5C54.9-0.1,52.5-0.1,51,1.3z M44.7,9h-0.9c-2.2,0-2.7,0.5-2.7,2.5V23c0,2.5-0.9,3.6-4.6,3.6c-3.7,0-4.7-1-4.7-3.6V11.5
			c0-2-0.5-2.5-2.7-2.5h-0.9c-2.2,0-2.7,0.5-2.7,2.5V23c0,6,3.7,9.2,11.1,9.2c7.6,0,11-3,11-9.2V11.5C47.4,9.5,46.9,9,44.7,9z
			 M85.9,0.2H85c-2.2,0-2.7,0.5-2.7,2.6v26.9c0,2.1,0.5,2.6,2.7,2.6h0.9c2.2,0,2.7-0.5,2.7-2.6V2.8C88.7,0.7,88.2,0.2,85.9,0.2z
			 M104.3,10.9c1.3-1.5,1.1-1.9-1-1.9H101c-2.1,0-2.9,0.4-4.2,1.9l-4.7,5.4c-1.2,1.4-1.8,2.8-1.8,4.2l0,0l0,0c0,1.4,0.6,2.9,1.8,4.2
			l4.7,5.5c1.3,1.5,2.1,1.9,4.2,1.9h2.3c2.1,0,2.3-0.4,1-1.9l-7.1-8.1c-0.6-0.6-0.8-1.3-0.8-1.6s0.3-1,0.8-1.6L104.3,10.9z
			 M19.6,0.2h-0.9c-2.2,0-2.7,0.5-2.7,2.6v5c2.2,1.2,4.1,2.8,5.4,4.7C19.1,10.3,16,9,12.5,9C5.6,9,0,14.2,0,20.6s5.6,11.6,12.5,11.6
			c3.5,0,6.6-1.3,8.9-3.5c-1,1.3-2.1,2.5-3.4,3.5c0.2,0,0.5,0,0.8,0h0.9c2.2,0,2.7-0.5,2.7-2.6V2.8C22.3,0.7,21.8,0.2,19.6,0.2z"/>
	</g>
</g>
<g>
	<g>
		<path class="st1" d="M227.7,30.9h-84.6c-1.6,0-2.9-1.3-2.9-2.9V4.3c0-1.6,1.3-2.9,2.9-2.9h84.6c1.6,0,2.9,1.3,2.9,2.9v23.7
			C230.6,29.6,229.3,30.9,227.7,30.9z"/>
	</g>
	<g>
		<path class="st0" d="M146.6,6.9h6.9c1.5,0,2.7,0.1,3.6,0.3c1.1,0.3,2,0.9,2.8,1.7c0.8,0.9,1.4,1.8,1.8,3s0.6,2.6,0.6,4.4
			c0,1.5-0.2,2.8-0.6,3.9c-0.4,1.4-1.1,2.5-2,3.3c-0.7,0.6-1.5,1.1-2.6,1.4c-0.9,0.3-2,0.4-3.3,0.4h-7.1L146.6,6.9L146.6,6.9z
			 M150.4,10.1v12.4h2.8c1,0,1.8-0.1,2.3-0.2c0.6-0.2,1.1-0.4,1.5-0.8s0.8-0.9,1-1.8c0.3-0.9,0.3-2,0.3-3.4c0-1.4-0.1-2.6-0.3-3.3
			c-0.3-0.8-0.6-1.4-1.1-1.8c-0.4-0.4-1-0.7-1.7-0.9c-0.5-0.1-1.5-0.2-3.1-0.2L150.4,10.1L150.4,10.1z"/>
		<path class="st0" d="M166.5,16.3c0-1.9,0.3-3.5,0.9-4.8c0.4-0.9,1-1.8,1.7-2.6c0.8-0.8,1.5-1.3,2.4-1.7c1.2-0.5,2.5-0.8,4-0.8
			c2.7,0,4.9,0.9,6.6,2.6c1.6,1.7,2.5,4.1,2.5,7.1s-0.9,5.4-2.5,7.1c-1.6,1.7-3.8,2.6-6.6,2.6s-4.9-0.9-6.6-2.6
			C167.3,21.6,166.5,19.3,166.5,16.3z M170.3,16.2c0,2.1,0.5,3.7,1.4,4.8c0.9,1.1,2.2,1.6,3.7,1.6s2.7-0.5,3.7-1.6
			c0.9-1.1,1.4-2.7,1.4-4.9s-0.4-3.7-1.4-4.8c-0.9-1-2.2-1.5-3.7-1.5s-2.8,0.5-3.7,1.6C170.7,12.5,170.3,14.1,170.3,16.2z"/>
		<path class="st0" d="M201.2,18.7l3.7,1.2c-0.6,2-1.4,3.6-2.8,4.5c-1.3,1-3,1.4-4.9,1.4c-2.5,0-4.5-0.9-6.1-2.6
			c-1.6-1.7-2.4-4-2.4-6.9c0-3.1,0.8-5.5,2.4-7.2s3.7-2.6,6.3-2.6c2.3,0,4.1,0.7,5.5,2c0.9,0.8,1.4,2,1.9,3.4l-3.7,0.9
			c-0.3-0.9-0.7-1.7-1.4-2.3c-0.7-0.6-1.5-0.9-2.6-0.9c-1.4,0-2.5,0.5-3.3,1.4c-0.9,0.9-1.3,2.6-1.3,4.8c0,2.4,0.4,4,1.3,5
			s2,1.5,3.3,1.5c1,0,1.9-0.3,2.6-0.9C200.4,21.1,200.9,20,201.2,18.7z"/>
		<path class="st0" d="M208.9,19.4l3.7-0.3c0.3,1.2,0.7,2.1,1.4,2.7c0.7,0.6,1.6,0.9,2.7,0.9c1.2,0,2.1-0.3,2.7-0.8
			c0.6-0.5,0.9-1.1,0.9-1.8c0-0.4-0.2-0.9-0.4-1.1c-0.3-0.3-0.7-0.6-1.4-0.8c-0.4-0.2-1.4-0.4-3-0.9c-2-0.5-3.4-1.1-4.3-1.9
			c-1.1-1-1.7-2.3-1.7-3.7c0-0.9,0.3-1.9,0.8-2.6c0.5-0.9,1.3-1.4,2.3-1.9s2.2-0.7,3.7-0.7c2.3,0,4.1,0.5,5.3,1.5
			c1.2,1,1.8,2.4,1.9,4.1l-3.7,0.2c-0.2-0.9-0.5-1.6-1-2s-1.4-0.6-2.4-0.6c-1.1,0-2,0.3-2.6,0.7c-0.4,0.3-0.6,0.7-0.6,1.2
			c0,0.4,0.2,0.9,0.6,1.1c0.5,0.4,1.6,0.9,3.5,1.3c1.8,0.4,3.2,0.9,4.1,1.4c0.9,0.4,1.5,1.1,2,1.9c0.5,0.8,0.8,1.8,0.8,3
			c0,1.1-0.3,2-0.9,3c-0.6,0.9-1.4,1.6-2.5,2s-2.5,0.7-4.1,0.7c-2.4,0-4.2-0.5-5.5-1.6C209.9,23.1,209.2,21.5,208.9,19.4z"/>
	</g>
</g>
</svg>
