<?xml version="1.0" encoding="utf-8"?>
<svg version="1.1" id="Layer_1" xmlns="http://www.w3.org/2000/svg" xmlns:xlink="http://www.w3.org/1999/xlink" x="0px" y="0px"
	 viewBox="0 0 938 938" style="enable-background:new 0 0 938 938;" xml:space="preserve">
<style type="text/css">
	.st0{
		fill:#1F448C;
	}
	.st1{
		fill:#FFFFFF;
	}
</style>
<path class="st0" d="M811.4,938H126.6C56.7,938,0,881.3,0,811.4V126.6C0,56.7,56.7,0,126.6,0h684.8C881.3,0,938,56.7,938,126.6
	v684.8C938,881.3,881.3,938,811.4,938z"/>
<path class="st1" d="M620.6,847.4c28.5-21.1,51.6-47.3,71.6-76.3c-73.9,67.8-160,92.6-258,71.4c-64.9-14.1-117.6-49.2-157.4-102.4
	c-79.5-106-73.5-255.4,17.8-353.6c34.5-37.1,76.1-63,124.7-77.1c48.4-14,97.2-15.1,146.1-2.2c48.9,12.9,91,37.8,127.7,72.6
	c-0.6-1.1-1.2-2.2-1.9-3.2c-30.8-42.8-67.8-78.9-113.9-105.1c-2.6-1.5-3-3.3-3-5.9c0-37.5-0.1-75,0.1-112.4
	c0.1-9.8,0.3-19.8,1.8-29.5c3.2-20.3,12.5-30,33-32.8c25-3.5,50.2-3.8,75.2,0.4c18.7,3.1,28,13.5,30.3,32.4
	c1.2,9.8,1.8,19.7,1.8,29.5c0.1,210.5,0.1,421.1,0,631.6c0,10.6-0.7,21.4-2.7,31.8c-3.2,17.3-13.2,26.8-30.8,29.3
	c-11.5,1.6-23.1,1.9-34.7,2.4c-9,0.4-18.1,0.1-27.1,0.1C621,848,620.8,847.7,620.6,847.4z"/>
</svg>
